<?xml version="1.0" encoding="UTF-8" standalone="no"?>
<svg width="50px" height="46px" viewBox="0 0 50 46" version="1.1" xmlns="http://www.w3.org/2000/svg" xmlns:xlink="http://www.w3.org/1999/xlink" xmlns:sketch="http://www.bohemiancoding.com/sketch/ns">
    <!-- Generator: Sketch 3.5.1 (25234) - http://www.bohemiancoding.com/sketch -->
    <title>Group 41</title>
    <desc>Created with Sketch.</desc>
    <defs></defs>
    <g id="Welcome" stroke="none" stroke-width="1" fill="none" fill-rule="evenodd" sketch:type="MSPage">
        <g id="Group-41" sketch:type="MSLayerGroup" transform="translate(0.000000, -2.000000)">
            <rect id="Rectangle-695-Copy-2" opacity="0" fill="#FFFFFF" sketch:type="MSShapeGroup" x="0" y="0" width="50" height="50"></rect>
            <path d="M49.8317631,14.445 L41.8317631,2.445 C41.6457631,2.167 41.3337631,2 40.9997631,2 L8.99976314,2 C8.66576314,2 8.35376314,2.167 8.16776314,2.445 L0.167763143,14.445 C-0.0672368567,14.798 -0.0542368567,15.261 0.199763143,15.6 L24.1997631,47.6 C24.3877631,47.852 24.6847631,48 24.9997631,48 C25.3147631,48 25.6107631,47.852 25.7997631,47.6 L49.7997631,15.6 C50.0547631,15.261 50.0667631,14.798 49.8317631,14.445 L49.8317631,14.445 Z M47.1317631,14 L35.7207631,14 L32.3867631,4 L40.4647631,4 L47.1317631,14 L47.1317631,14 Z M14.2787631,16 L23.3017631,43.069 L2.99976314,16 L14.2787631,16 L14.2787631,16 Z M16.3877631,16 L33.6137631,16 L24.9997631,41.838 L16.3877631,16 L16.3877631,16 Z M16.3877631,14 L19.7207631,4 L30.2797631,4 L33.6137631,14 L16.3877631,14 L16.3877631,14 Z M35.7207631,16 L46.9997631,16 L26.6967631,43.069 L35.7207631,16 L35.7207631,16 Z M9.53476314,4 L17.6117631,4 L14.2787631,14 L2.86876314,14 L9.53476314,4 L9.53476314,4 Z M24.7997631,45.066 L24.9997631,45 L25.1997631,45.066 L24.9997631,45.333 L24.7997631,45.066 L24.7997631,45.066 Z" id="Shape" fill="#000000" sketch:type="MSShapeGroup"></path>
        </g>
    </g>
</svg>